<svg width="1618" height="1618" viewBox="0 0 1618 1618" fill="none" xmlns="http://www.w3.org/2000/svg">
<rect width="1618" height="1618" fill="#0B0B0B"/>
<path d="M200.336 1138V430.653H506.517C569.841 430.653 624.408 441.095 670.217 461.979C716.026 482.189 751.393 511.493 776.319 549.892C801.244 588.291 813.707 634.1 813.707 687.319C813.707 739.865 801.244 785.337 776.319 823.736C751.393 861.461 716.026 890.429 670.217 910.639C624.408 930.848 569.841 940.953 506.517 940.953H291.281L364.037 869.208V1138H200.336ZM650.007 1138L473.17 881.334H647.986L826.844 1138H650.007ZM364.037 887.397L291.281 810.6H497.422C547.947 810.6 585.672 799.821 610.598 778.264C635.523 756.033 647.986 725.718 647.986 687.319C647.986 648.247 635.523 617.932 610.598 596.375C585.672 574.817 547.947 564.039 497.422 564.039H291.281L364.037 486.231V887.397Z" fill="white"/>
<path d="M975.073 1084.53C1072.56 988.555 1209.04 743.86 975.073 532.908" stroke="#00BF33" stroke-width="63.156" stroke-linecap="round"/>
<path d="M1104.25 1202.74C1234.23 1065.63 1416.2 716.061 1104.25 414.702" stroke="#00BF33" stroke-width="63.156" stroke-linecap="round"/>
<path d="M1233.44 1320.94C1395.91 1142.7 1623.38 688.264 1233.44 296.497" stroke="#00BF33" stroke-width="63.156" stroke-linecap="round"/>
</svg>
