<svg width="16710" height="3121" viewBox="0 0 16710 3121" fill="none" xmlns="http://www.w3.org/2000/svg">
<path d="M291.664 2582V715.219H1099.71C1266.83 715.219 1410.84 742.776 1531.74 797.891C1652.64 851.227 1745.97 928.566 1811.76 1029.91C1877.54 1131.24 1910.43 1252.14 1910.43 1392.59C1910.43 1531.27 1877.54 1651.28 1811.76 1752.62C1745.97 1852.18 1652.64 1928.63 1531.74 1981.96C1410.84 2035.3 1266.83 2061.97 1099.71 2061.97H531.678L723.69 1872.62V2582H291.664ZM1478.4 2582L1011.71 1904.63H1473.07L1945.1 2582H1478.4ZM723.69 1920.63L531.678 1717.95H1075.71C1209.05 1717.95 1308.61 1689.5 1374.4 1632.61C1440.18 1573.94 1473.07 1493.93 1473.07 1392.59C1473.07 1289.48 1440.18 1209.47 1374.4 1152.58C1308.61 1095.69 1209.05 1067.24 1075.71 1067.24H531.678L723.69 861.895V1920.63ZM2935.43 2603.33C2771.86 2603.33 2627.86 2571.33 2503.4 2507.33C2380.73 2443.32 2285.61 2356.21 2218.05 2245.98C2150.49 2133.97 2116.71 2006.85 2116.71 1864.62C2116.71 1720.61 2149.6 1593.5 2215.39 1483.27C2282.95 1371.26 2374.51 1284.14 2490.07 1221.92C2605.63 1157.91 2736.31 1125.91 2882.09 1125.91C3022.55 1125.91 3148.78 1156.14 3260.78 1216.58C3374.57 1275.25 3464.35 1360.59 3530.13 1472.6C3595.91 1582.83 3628.81 1715.28 3628.81 1869.96C3628.81 1885.96 3627.92 1904.63 3626.14 1925.96C3624.36 1945.52 3622.58 1964.18 3620.8 1981.96H2455.4V1739.28H3402.12L3242.11 1811.29C3242.11 1736.61 3227 1671.72 3196.78 1616.61C3166.55 1561.49 3124.77 1518.82 3071.44 1488.6C3018.1 1456.6 2955.88 1440.6 2884.76 1440.6C2813.64 1440.6 2750.53 1456.6 2695.41 1488.6C2642.08 1518.82 2600.3 1562.38 2570.07 1619.27C2539.85 1674.39 2524.74 1740.17 2524.74 1816.62V1880.62C2524.74 1958.85 2541.63 2028.19 2575.41 2088.64C2610.97 2147.31 2659.86 2192.64 2722.08 2224.64C2786.09 2254.87 2860.76 2269.98 2946.1 2269.98C3022.55 2269.98 3089.22 2258.42 3146.11 2235.31C3204.78 2212.2 3258.12 2177.53 3306.12 2131.31L3527.47 2371.32C3461.68 2445.99 3379.01 2503.77 3279.45 2544.66C3179.89 2583.78 3065.22 2603.33 2935.43 2603.33ZM4516.48 2603.33C4381.36 2603.33 4259.58 2573.11 4151.13 2512.66C4042.68 2452.21 3956.45 2366.88 3892.45 2256.65C3830.22 2146.42 3799.11 2015.74 3799.11 1864.62C3799.11 1715.28 3830.22 1585.49 3892.45 1475.27C3956.45 1365.04 4042.68 1279.7 4151.13 1219.25C4259.58 1157.02 4381.36 1125.91 4516.48 1125.91C4642.71 1125.91 4750.28 1152.58 4839.17 1205.92C4929.84 1259.25 4999.18 1340.15 5047.18 1448.6C5095.19 1557.05 5119.19 1695.72 5119.19 1864.62C5119.19 2031.74 5094.3 2170.42 5044.52 2280.65C4994.74 2389.1 4924.51 2469.99 4833.84 2523.33C4743.16 2576.67 4637.38 2603.33 4516.48 2603.33ZM4588.49 2261.98C4656.05 2261.98 4717.39 2245.98 4772.5 2213.98C4827.61 2181.98 4871.17 2136.64 4903.17 2077.97C4936.95 2017.52 4953.84 1946.41 4953.84 1864.62C4953.84 1781.06 4936.95 1709.95 4903.17 1651.28C4871.17 1592.61 4827.61 1547.27 4772.5 1515.27C4717.39 1483.27 4656.05 1467.27 4588.49 1467.27C4519.15 1467.27 4456.93 1483.27 4401.81 1515.27C4346.7 1547.27 4302.25 1592.61 4268.47 1651.28C4236.47 1709.95 4220.47 1781.06 4220.47 1864.62C4220.47 1946.41 4236.47 2017.52 4268.47 2077.97C4302.25 2136.64 4346.7 2181.98 4401.81 2213.98C4456.93 2245.98 4519.15 2261.98 4588.49 2261.98ZM4945.84 3099.36V2291.32L4972.51 1867.29L4964.51 1440.6V1147.25H5361.87V3099.36H4945.84ZM6352.41 2603.33C6233.29 2603.33 6126.62 2580.22 6032.39 2534C5939.94 2487.77 5867.93 2417.55 5816.38 2323.32C5764.82 2227.31 5739.04 2105.53 5739.04 1957.96V1147.25H6155.06V1896.62C6155.06 2015.74 6179.95 2103.75 6229.73 2160.64C6281.29 2215.76 6353.3 2243.31 6445.75 2243.31C6509.75 2243.31 6566.64 2229.98 6616.43 2203.31C6666.21 2174.86 6705.32 2132.19 6733.77 2075.3C6762.21 2016.63 6776.43 1943.74 6776.43 1856.62V1147.25H7192.46V2582H6797.77V2187.31L6869.77 2301.98C6821.77 2401.54 6750.66 2477.1 6656.43 2528.66C6563.98 2578.44 6462.64 2603.33 6352.41 2603.33ZM8289.92 2603.33C8126.36 2603.33 7982.35 2571.33 7857.9 2507.33C7735.22 2443.32 7640.11 2356.21 7572.55 2245.98C7504.99 2133.97 7471.21 2006.85 7471.21 1864.62C7471.21 1720.61 7504.1 1593.5 7569.88 1483.27C7637.44 1371.26 7729 1284.14 7844.56 1221.92C7960.13 1157.91 8090.8 1125.91 8236.59 1125.91C8377.04 1125.91 8503.27 1156.14 8615.28 1216.58C8729.06 1275.25 8818.84 1360.59 8884.63 1472.6C8950.41 1582.83 8983.3 1715.28 8983.3 1869.96C8983.3 1885.96 8982.41 1904.63 8980.63 1925.96C8978.85 1945.52 8977.08 1964.18 8975.3 1981.96H7809.89V1739.28H8756.62L8596.61 1811.29C8596.61 1736.61 8581.5 1671.72 8551.27 1616.61C8521.05 1561.49 8479.27 1518.82 8425.93 1488.6C8372.59 1456.6 8310.37 1440.6 8239.25 1440.6C8168.14 1440.6 8105.02 1456.6 8049.91 1488.6C7996.57 1518.82 7954.79 1562.38 7924.57 1619.27C7894.34 1674.39 7879.23 1740.17 7879.23 1816.62V1880.62C7879.23 1958.85 7896.12 2028.19 7929.9 2088.64C7965.46 2147.31 8014.35 2192.64 8076.58 2224.64C8140.58 2254.87 8215.25 2269.98 8300.59 2269.98C8377.04 2269.98 8443.71 2258.42 8500.6 2235.31C8559.27 2212.2 8612.61 2177.53 8660.61 2131.31L8881.96 2371.32C8816.18 2445.99 8733.51 2503.77 8633.94 2544.66C8534.38 2583.78 8419.71 2603.33 8289.92 2603.33ZM9742.97 2603.33C9620.3 2603.33 9502.07 2589.11 9388.28 2560.67C9276.27 2530.44 9187.38 2493.11 9121.6 2448.66L9260.27 2149.97C9326.06 2190.86 9403.39 2224.64 9492.29 2251.31C9582.96 2276.2 9671.85 2288.65 9758.97 2288.65C9854.98 2288.65 9922.54 2277.09 9961.65 2253.98C10002.5 2230.87 10023 2198.87 10023 2157.97C10023 2124.19 10007 2099.3 9974.98 2083.3C9944.76 2065.52 9903.87 2052.19 9852.31 2043.3C9800.75 2034.41 9743.86 2025.52 9681.63 2016.63C9621.18 2007.74 9559.85 1996.19 9497.62 1981.96C9435.4 1965.96 9378.5 1942.85 9326.94 1912.63C9275.39 1882.4 9233.61 1841.51 9201.6 1789.95C9171.38 1738.39 9156.27 1671.72 9156.27 1589.94C9156.27 1499.27 9182.05 1419.26 9233.61 1349.92C9286.94 1280.59 9363.39 1226.36 9462.95 1187.25C9562.51 1146.36 9681.63 1125.91 9820.31 1125.91C9918.09 1125.91 10017.7 1136.58 10119 1157.91C10220.3 1179.25 10304.8 1210.36 10372.3 1251.25L10233.7 1547.27C10164.3 1506.38 10094.1 1478.82 10023 1464.6C9953.65 1448.6 9886.09 1440.6 9820.31 1440.6C9727.86 1440.6 9660.3 1453.04 9617.63 1477.93C9574.96 1502.82 9553.62 1534.82 9553.62 1573.94C9553.62 1609.5 9568.74 1636.16 9598.96 1653.94C9630.96 1671.72 9672.74 1685.95 9724.3 1696.61C9775.86 1707.28 9831.86 1717.06 9892.31 1725.95C9954.54 1733.06 10016.8 1744.62 10079 1760.62C10141.2 1776.62 10197.2 1799.73 10247 1829.95C10298.6 1858.4 10340.3 1898.4 10372.3 1949.96C10404.3 1999.74 10420.3 2065.52 10420.3 2147.31C10420.3 2236.2 10393.7 2315.32 10340.3 2384.65C10287 2452.21 10209.7 2505.55 10108.3 2544.66C10008.8 2583.78 9886.98 2603.33 9742.97 2603.33ZM11263.7 2603.33C11094.8 2603.33 10963.3 2560.67 10869 2475.33C10774.8 2388.21 10727.7 2259.31 10727.7 2088.64V829.893H11143.7V2083.3C11143.7 2143.75 11159.7 2190.86 11191.7 2224.64C11223.7 2256.65 11267.3 2272.65 11322.4 2272.65C11388.2 2272.65 11444.2 2254.87 11490.4 2219.31L11602.4 2512.66C11559.7 2542.89 11508.2 2566 11447.7 2582C11389.1 2596.22 11327.7 2603.33 11263.7 2603.33ZM10506.4 1499.27V1179.25H11501.1V1499.27H10506.4ZM11836 2582V1147.25H12252V2582H11836ZM12044 947.233C11967.5 947.233 11905.3 925.01 11857.3 880.563C11809.3 836.115 11785.3 781.001 11785.3 715.219C11785.3 649.437 11809.3 594.323 11857.3 549.876C11905.3 505.429 11967.5 483.205 12044 483.205C12120.4 483.205 12182.6 504.54 12230.6 547.209C12278.6 588.1 12302.6 641.437 12302.6 707.219C12302.6 776.556 12278.6 834.338 12230.6 880.563C12184.4 925.01 12122.2 947.233 12044 947.233ZM12688.8 2582V1115.24C12688.8 953.456 12736.8 824.559 12832.8 728.553C12928.8 630.77 13065.7 581.878 13243.5 581.878C13303.9 581.878 13361.7 588.1 13416.8 600.546C13473.7 612.991 13521.7 632.547 13560.8 659.216L13451.5 960.568C13428.4 944.567 13402.6 932.121 13374.1 923.232C13345.7 914.342 13315.5 909.898 13283.5 909.898C13223 909.898 13175.9 927.677 13142.1 963.234C13110.1 997.014 13094.1 1048.57 13094.1 1117.91V1251.25L13104.8 1429.93V2582H12688.8ZM12467.4 1499.27V1179.25H13462.1V1499.27H12467.4ZM13876.8 3120.7C13802.1 3120.7 13728.3 3109.14 13655.4 3086.03C13582.5 3062.92 13523 3030.92 13476.8 2990.02L13628.8 2694.01C13660.8 2722.45 13697.2 2744.68 13738.1 2760.68C13780.8 2776.68 13822.6 2784.68 13863.5 2784.68C13922.1 2784.68 13968.3 2770.46 14002.1 2742.01C14037.7 2715.34 14069.7 2670.01 14098.1 2606L14172.8 2429.99L14204.8 2384.65L14719.5 1147.25H15119.5L14471.5 2670.01C14425.3 2785.57 14371.9 2876.24 14311.5 2942.02C14252.8 3007.8 14187 3054.03 14114.1 3080.7C14043 3107.37 13963.9 3120.7 13876.8 3120.7ZM14122.1 2638L13482.1 1147.25H13911.5L14407.5 2347.32L14122.1 2638Z" fill="white"/>
<path d="M15375.9 2371.3C15633.2 2118.01 15993.4 1472.27 15375.9 915.569" stroke="#00BF33" stroke-width="166.677" stroke-linecap="round"/>
<path d="M15716.9 2683.24C16059.9 2321.4 16540.1 1398.91 15716.9 603.625" stroke="#00BF33" stroke-width="166.677" stroke-linecap="round"/>
<path d="M16057.8 2995.18C16486.6 2524.79 17086.9 1325.55 16057.8 291.68" stroke="#00BF33" stroke-width="166.677" stroke-linecap="round"/>
</svg>
